<?xml version="1.0" standalone="no"?>
<!DOCTYPE svg PUBLIC "-//W3C//DTD SVG 20010904//EN"
 "http://www.w3.org/TR/2001/REC-SVG-20010904/DTD/svg10.dtd">
<svg version="1.0" xmlns="http://www.w3.org/2000/svg"
 width="512.000000pt" height="512.000000pt" viewBox="0 0 512.000000 512.000000"
 preserveAspectRatio="xMidYMid meet">
<metadata>
Created by potrace 1.14, written by Peter Selinger 2001-2017
</metadata>
<g transform="translate(0.000000,512.000000) scale(0.100000,-0.100000)"
fill="#000000" stroke="none">
<path d="M3368 4946 c-63 -17 -109 -50 -211 -154 -47 -48 -110 -111 -141 -141
l-55 -54 -42 37 c-61 55 -121 80 -199 80 -106 0 -139 -21 -331 -211 -202 -200
-230 -243 -225 -351 2 -46 10 -81 25 -112 15 -29 124 -146 315 -338 160 -161
291 -297 291 -303 0 -5 -242 -252 -537 -547 l-538 -537 -292 293 c-331 331
-353 347 -468 346 -109 -1 -140 -21 -340 -222 -106 -106 -184 -193 -195 -217
-11 -23 -20 -67 -21 -106 -3 -78 22 -143 82 -208 l37 -42 -34 -35 c-19 -20
-89 -90 -156 -156 -147 -147 -168 -183 -167 -288 0 -112 21 -144 226 -348
l174 -172 -94 -93 c-120 -117 -152 -178 -148 -276 2 -36 11 -84 21 -105 24
-55 261 -295 328 -332 45 -25 62 -29 127 -28 101 0 132 17 257 138 57 54 105
97 107 95 3 -2 83 -81 178 -175 95 -94 191 -181 214 -192 114 -58 256 -27 346
75 14 15 77 79 141 142 l116 114 40 -36 c112 -101 248 -113 361 -31 25 18 113
101 197 186 179 181 204 222 199 328 -2 43 -11 81 -26 110 -15 30 -122 145
-318 342 -163 164 -294 300 -291 302 35 40 1075 1076 1078 1076 3 0 138 -132
301 -294 195 -194 310 -302 340 -317 78 -39 193 -33 265 15 60 39 354 339 380
388 56 103 40 223 -42 317 l-45 52 23 25 c13 14 82 83 152 152 158 156 188
208 183 311 -5 102 -27 135 -222 331 -96 97 -174 179 -174 182 0 3 39 44 86
90 126 123 154 176 150 282 -4 90 -32 134 -175 279 -150 152 -198 181 -301
181 -95 1 -153 -31 -264 -144 -49 -50 -93 -89 -97 -88 -5 2 -86 80 -181 175
-185 183 -223 210 -315 217 -26 2 -69 -2 -95 -8z"/>
</g>
</svg>
